<svg xmlns="http://www.w3.org/2000/svg" viewBox="-286 371.616 38.044 51.384"><g fill="none" stroke="#30a4dc" stroke-width="2" stroke-linecap="round" stroke-linejoin="round" stroke-miterlimit="10"><circle cx="-266.978" cy="390.638" r="18.022"/><path d="M-265.964 408.633l4.841 13.367 3.188-5.154 6.588 2.126-4.938-13.83m-12.499 3.429l-3.017 8.328-3.188-5.153-6.588 2.125 3.286-9.204m2.291-16.89c0-4.536 7.171-4.553 7.171-.34 0 2.497-2.433 3.595-4.108 4.951-1.46 1.182-2.865 1.511-2.865 4.511h6.868m4.278-2.254c.562 1.642 2.077 2.474 3.44 2.474 1.762 0 3.644-1.245 3.644-3.75 0-1.305-.359-2.725-1.465-3.646-1.011-.841-3.246-1.31-5.155-.068 0-1.129.044-1.756.044-5.756h6.215"/></g></svg>