<svg xmlns="http://www.w3.org/2000/svg" viewBox="0 0 55 60.3" width="50" height="50"><circle fill="none" stroke="#30a4dc" stroke-width="2" stroke-linecap="round" stroke-linejoin="round" stroke-miterlimit="10" cx="26.9" cy="38.4" r="7"/><path fill="none" stroke="#30a4dc" stroke-width="2" stroke-linecap="round" stroke-linejoin="round" stroke-miterlimit="10" d="M19.9 24.3c0-3.9 3.1-7 7-7s7 3.1 7 7m-28 1.1h42v26h-42zm6 0c0 3.3-2.7 6-6 6m41.7 0c-3.3 0-6-2.7-6-6m.3 26c0-3.3 2.7-6 6-6m-42 0c3.3 0 6 2.7 6 6"/><path fill="none" stroke="#30a4dc" stroke-width="2" stroke-linecap="round" stroke-linejoin="round" stroke-miterlimit="10" d="M5.9 25.4l-2-12.3 41.4-7.7 4.6 26.2-2 .7M9.8 12c.6 3.3-1.6 6.6-4.8 7.2m41.3-7.8c-3.3.6-6.4-1.6-7-5"/></svg>