<svg xmlns="http://www.w3.org/2000/svg" preserveAspectRatio="xMidYMid" width="40" height="48" viewBox="0 0 40 48"><path fill="#30a4dc" fill-rule="evenodd" d="M39 34H21a1 1 0 0 1-1-1.001V31c0-.552-.449-1.001-1-1.001H4V47a1 1 0 0 1-2 0V5.816a2.996 2.996 0 0 1-2-2.817c0-1.653 1.346-3 3-3s3 1.347 3 3a2.996 2.996 0 0 1-2 2.817v2.183h15c1.654 0 3 1.347 3 3.002v.998h17c.552 0 1 .449 1 1v20A1 1 0 0 1 39 34zM3 2a1 1 0 0 0-1 .999 1.001 1.001 0 0 0 2 0A1 1 0 0 0 3 2zm17 9.001c0-.552-.449-1.001-1-1.001H4v18h15c.35 0 .687.06 1 .171v-17.17zM38 14H22v18h16V14z"/></svg>