<svg xmlns="http://www.w3.org/2000/svg" viewBox="0 0 49.703 50.353"><g fill="none" stroke="#30a4dc" stroke-width="1.953" stroke-linecap="round" stroke-miterlimit="10"><path d="M48.727 49.376c0-5.592-4.533-10.125-10.125-10.125h-27.5C5.51 39.251.977 43.784.977 49.376m10.125-10.125v9.959m3.52-9.959v9.959m21.709-9.959v9.959m3.521-9.959v9.959m-7.881-9.959a7.219 7.219 0 1 1-14.438 0"/><path d="M13.57 33.439c0-2.079-1.335-3.83-3.188-4.489v4.489H7.195V28.95c-1.853.659-3.188 2.41-3.188 4.489 0 1.797 1.003 3.344 2.469 4.16v2.777a10.074 10.074 0 0 1 4.625-1.125v-1.652c1.466-.816 2.469-2.363 2.469-4.16zm32.496 9.098v-6.442c0-2.563-3.308-9.281-3.308-9.281h-1.312m-.001 6.792v-6.792h-1.312s-3.308 6.719-3.308 9.281v2.839"/><circle cx="41.445" cy="35.569" r="1.682"/><path d="M19.143 33.606v2.583c0 1.208-.312 2.354-1.438 3.062m12.542-5.645v2.583c0 1.208.312 2.354 1.438 3.062M13.346 18.416a12.028 12.028 0 0 0-.667 3.929c0 6.667 5.405 12.073 12.073 12.073s12.073-5.405 12.073-12.073c0-1.378-.242-2.696-.667-3.929m2.048-3.986C38.206 7 32.183.976 24.752.976S11.299 7 11.299 14.43"/><ellipse cx="24.752" cy="16.21" rx="13.662" ry="3.625"/><path d="M12.755 21.291a2.937 2.937 0 0 1-1.666-4.752m25.945 4.752a2.937 2.937 0 0 0 1.666-4.752M24.752.977v6.149m7.693 16.354h-7.593v6.668"/></g></svg>