<svg xmlns="http://www.w3.org/2000/svg" preserveAspectRatio="xMidYMid" width="48" height="47.85" viewBox="0 0 48 47.85"><path fill="#30a4dc" fill-rule="evenodd" d="M47.242 43.839l-16 3.989a.996.996 0 0 1-.242.03.97.97 0 0 1-.45-.12c-.014-.007-.032-.004-.046-.012l-13.651-7.779-15.611 3.892A.996.996 0 0 1 0 42.872V4.981c0-.458.313-.857.758-.968L16.732.031l.01-.002.016-.004c.038-.01.075-.003.113-.006h.011c.04-.006.076-.024.118-.024.019 0 .037.006.055.011.067.003.131.022.198.04.009.002.018.002.026.005.04.012.076.027.113.041.034.015.071.015.104.034l3.838 2.187c.86-.197 1.746-.324 2.666-.324 4.116 0 7.753 2.074 9.916 5.226l12.842-3.202a.996.996 0 0 1 .857.182.994.994 0 0 1 .385.786v37.891a.997.997 0 0 1-.758.967zM18 38.305l12 6.837V24.233c-.225.13-.437.277-.672.393l-4.436 8.725a1 1 0 0 1-.892.547h-.001a1 1 0 0 1-.892-.548l-4.418-8.716c-.241-.119-.458-.269-.689-.402v14.073zM16 2.269L2 5.759v35.836l14-3.49V22.814c-2.497-2.232-4-5.449-4-8.887 0-3.523 1.552-6.685 4-8.873V2.269zm2 .441v.894c.269-.155.557-.281.838-.416L18 2.71zm6 1.273c-5.514 0-10 4.461-10 9.944 0 3.88 2.293 7.43 5.843 9.046a.992.992 0 0 1 .477.456l3.681 7.263 3.697-7.27a1 1 0 0 1 .475-.456C31.713 21.348 34 17.8 34 13.927c0-5.483-4.486-9.944-10-9.944zm22 2.275l-11.074 2.76A11.797 11.797 0 0 1 36 13.927c0 3.436-1.504 6.654-4 8.886v22.77l14-3.49V6.258zM24 17.916c-2.206 0-4-1.789-4-3.989a4 4 0 0 1 4-3.989 4 4 0 0 1 4 3.989c0 2.2-1.794 3.989-4 3.989zm0-5.984a2 2 0 0 0-2 1.995 2 2 0 0 0 4 0 2 2 0 0 0-2-1.995z"/></svg>