<svg xmlns="http://www.w3.org/2000/svg" viewBox="0 0 34 44"><path d="M23 0H3.812A3.812 3.812 0 0 0 0 3.812v36.375A3.813 3.813 0 0 0 3.812 44h26.375A3.813 3.813 0 0 0 34 40.188V11L23 0z" fill="#9ac7ee"/><path d="M23 7.188A3.812 3.812 0 0 0 26.812 11H34L23 0v7.188z" fill="#9ac7ee"/><path d="M6.725 27v-7.337h3.426c.386 0 .737.062 1.054.188.316.125.575.295.777.51.202.215.357.465.466.749.109.285.164.59.164.916 0 .322-.055.626-.164.91a2.257 2.257 0 0 1-.469.752 2.15 2.15 0 0 1-.777.516 2.78 2.78 0 0 1-1.05.191H8.288V27H6.725zm1.563-3.98h1.66c.315 0 .574-.091.776-.274a.921.921 0 0 0 .304-.72c0-.304-.101-.545-.304-.723-.202-.177-.461-.266-.776-.266h-1.66v1.983zM14.024 27v-7.337h2.891c.758 0 1.432.151 2.021.454.59.302 1.048.733 1.375 1.292s.491 1.201.491 1.928-.164 1.369-.491 1.926c-.327.557-.786.985-1.375 1.286S17.672 27 16.915 27h-2.891zm1.563-1.375h1.332c.702 0 1.26-.22 1.676-.661s.623-.983.623-1.627c0-.677-.201-1.229-.602-1.657-.401-.428-.967-.642-1.697-.642h-1.332v4.587zM21.919 27v-7.337h5.194v1.375h-3.631v1.552h3.55v1.375h-3.55V27h-1.563z" fill="#fff"/></svg>