<svg xmlns="http://www.w3.org/2000/svg" viewBox="0 0 50.132 57.257" width="50" height="50"><path d="M32.254 16.736a6.762 6.762 0 0 1-13.524 0c0-4.49 3.434-9.72 6.762-13.101 3.487 3.328 6.762 8.135 6.762 13.101zm-18.012 4.288a5.052 5.052 0 1 1-3.79 9.368c-3.11-1.258-5.771-5.102-7.18-8.355 3.283-1.482 7.531-2.404 10.97-1.013zm11.25-7.458V39.45M11.127 25.082c5.508 1.984 11.258 6.172 13.365 13.787m15.365-13.787c-5.508 1.984-11.258 6.172-13.365 13.787" fill="none" stroke="#30a4dc" stroke-width="2" stroke-linecap="round" stroke-linejoin="round" stroke-miterlimit="10"/><path d="M36.742 21.024a5.052 5.052 0 1 0 3.79 9.368c3.11-1.258 5.771-5.102 7.18-8.355-3.283-1.482-7.53-2.404-10.97-1.013zm9.06 12.769c0 11.217-9.093 20.31-20.31 20.31s-20.31-9.093-20.31-20.31m9.075 5.904h22.375" fill="none" stroke="#30a4dc" stroke-width="2" stroke-linecap="round" stroke-linejoin="round" stroke-miterlimit="10"/></svg>