<svg xmlns="http://www.w3.org/2000/svg" viewBox="0 0 49.881 60.475" width="50" height="45"><path d="M16.677 16.592h-6.515m6.515-6.515h-6.515m10.859 36.918H5.819m0-15.201h15.202m-4.355-13.03c0 3.304 4.355 5.429 4.355 9.817v23.843h-.032.032c0 1.798-3.396 3.257-7.585 3.257s-7.585-1.459-7.585-3.257l-.032-23.843c0-4.388 4.355-6.513 4.355-9.817V5.734h6.492v13.03m28.862 13.687a9.276 9.276 0 1 1-18.552 0m9.275 9.276v11.167" fill="none" stroke="#30a4dc" stroke-width="2" stroke-linecap="round" stroke-linejoin="round" stroke-miterlimit="10"/><ellipse cx="36.251" cy="32.451" rx="9.276" ry="2.703" fill="none" stroke="#30a4dc" stroke-width="2" stroke-linecap="round" stroke-linejoin="round" stroke-miterlimit="10"/><ellipse cx="36.251" cy="53.59" rx="6.736" ry="2.092" fill="none" stroke="#30a4dc" stroke-width="2" stroke-linecap="round" stroke-linejoin="round" stroke-miterlimit="10"/></svg>