<svg id="Layer_1" xmlns="http://www.w3.org/2000/svg" viewBox="0 0 15 19"><style>.st0{fill:#32a4dd}</style><path class="st0" d="M13.8 0H5.4v3.8c0 .9-.7 1.7-1.7 1.7H0v12.4c0 .6.5 1.1 1.2 1.1h12.6c.7 0 1.2-.5 1.2-1.2V1.2c0-.7-.5-1.2-1.2-1.2zM7.7 15H3.6c-.3 0-.6-.3-.6-.6s.2-.6.6-.6h4.1c.3 0 .6.3.6.6s-.3.6-.6.6zm4.2-2.9H3.6c-.3 0-.6-.3-.6-.6s.2-.6.6-.6h8.2c.3 0 .6.3.6.6 0 .4-.2.6-.5.6zm0-3H3.6c-.3 0-.6-.3-.6-.6.1-.3.3-.5.6-.5h8.2c.3 0 .6.3.6.6 0 .2-.2.5-.5.5zM.5 4.8h3.2c.5 0 1-.4 1-1V.5c0-.3-.2-.5-.5-.5-.1 0-.2.1-.3.2L.2 3.9c-.4.3-.1.9.3.9z"/></svg>