<svg id="Layer_1" xmlns="http://www.w3.org/2000/svg" viewBox="0 0 372.4 47.2"><style>.st0{enable-background:new}.st1{fill:#12100b}.st2{fill:#3ea3dc}</style><path class="st0 st1" d="M165.3 26.5h-5.6v-7h.9v6.2h4.1v-6.2h.9v6.2h.6v2.1h-.9v-1.3zm4 0v-7h4.6v.8h-3.7v2.3h3.6v.8h-3.6v2.4h3.7v.8l-4.6-.1zm12.9 0v-3.2h-4.1v3.2h-.9v-7h.9v3h4.1v-3h.9v7h-.9zm6.3 0v-6.2h-2.2v-.8h5.3v.8h-2.2v6.2h-.9zm6.2 0v-7h2.8c1.4 0 2.2 1 2.2 2.1s-.8 2.1-2.2 2.1h-1.9v2.8h-.9zm4.1-4.9c0-.8-.6-1.3-1.4-1.3h-1.8V23h1.8c.9-.1 1.4-.6 1.4-1.4zm9.3 4.2c.8 0 1.3-.5 1.6-2.8l.4-3.5h4.3v7h-.9v-6.2H211l-.3 2.8c-.4 3.1-1.2 3.5-2.5 3.5l-.1-.8zm15 .7l-.6-1.6H219l-.6 1.6h-1l2.8-7h1.1l2.8 7h-1zm-2.4-6.1l-1.5 3.8h3l-1.5-3.8zm5.6 5.1l.5-.6c.4.5 1.2.9 2.1.9 1.1 0 1.8-.5 1.8-1.3 0-.9-.7-1.2-1.8-1.2h-1.4v-.8h1.4c.9 0 1.7-.3 1.7-1.2 0-.8-.8-1.2-1.7-1.2-.8 0-1.5.3-2 .8l-.5-.5c.5-.6 1.4-1.1 2.5-1.1 1.4 0 2.5.7 2.5 1.9 0 1-.9 1.5-1.5 1.6.6.1 1.6.6 1.6 1.7 0 1.2-1.1 2-2.6 2-1.2.1-2.1-.4-2.6-1zm8.7 1v-7h4.6v.8h-3.7v2.3h3.6v.8h-3.6v2.4h3.7v.8l-4.6-.1zm8 0v-7h2.8c1.4 0 2.2 1 2.2 2.1s-.8 2.1-2.2 2.1h-1.9v2.8h-.9zm4.1-4.9c0-.8-.6-1.3-1.4-1.3h-1.8V23h1.8c.8-.1 1.4-.6 1.4-1.4zm9 4.9v-3.2H252v3.2h-.9v-7h.9v3h4.1v-3h.9v7h-.9zm5.4-7v2.8h1.9c1.4 0 2.2 1 2.2 2.1s-.8 2.1-2.2 2.1h-2.8v-7h.9zm0 3.5v2.7h1.8c.8 0 1.4-.5 1.4-1.3s-.6-1.3-1.4-1.3h-1.8V23zm4.8 3.5v-7h.9v7h-.9zm9.4 0l-2.2-3-2.2 3h-1.1l2.7-3.6-2.6-3.4h1.1l2.1 2.8 2.1-2.8h1.1l-2.6 3.4 2.7 3.6h-1.1zm12.1 0v-6.2h-2.2v-.8h5.3v.8h-2.2v6.2h-.9zm6.2 0v-7h4.6v.8h-3.7v2.3h3.6v.8h-3.6v2.4h3.7v.8l-4.6-.1zm12.8 0l-2.2-3-2.2 3h-1.1l2.7-3.6-2.6-3.4h1.1l2.1 2.8 2.1-2.8h1.1l-2.6 3.4 2.7 3.6h-1.1zm9 0v-3.2h-4.1v3.2h-.9v-7h.9v3h4.1v-3h.9v7h-.9zM320 23c0-2.1 1.4-3.6 3.5-3.6S327 21 327 23s-1.4 3.6-3.5 3.6-3.5-1.5-3.5-3.6zm6.1 0c0-1.6-1-2.8-2.6-2.8s-2.6 1.2-2.6 2.8c0 1.6 1 2.8 2.6 2.8 1.5 0 2.6-1.2 2.6-2.8zm3.3 2.8c.8 0 1.3-.5 1.6-2.8l.4-3.5h4.3v7h-.9v-6.2h-2.6l-.3 2.8c-.4 3.1-1.2 3.5-2.5 3.5v-.8zm9.7-2.8c0-2.1 1.4-3.6 3.5-3.6s3.5 1.6 3.5 3.6-1.4 3.6-3.5 3.6-3.5-1.5-3.5-3.6zm6.1 0c0-1.6-1-2.8-2.6-2.8S340 21.4 340 23c0 1.6 1 2.8 2.6 2.8s2.6-1.2 2.6-2.8zm4.2 3.5v-7h4.6v.8h-3.7v6.2h-.9zm7.8 0v-7h.9V25l4-5.5h.9v7h-.9v-5.6l-4.1 5.6h-.8zm9.4 0v-7h.9V25l4-5.5h.9v7h-.9v-5.6l-4.1 5.6h-.8zm2.9-7.4c-.7 0-1.4-.4-1.8-.9l.4-.3c.3.5.8.8 1.5.8.6 0 1.1-.3 1.4-.8l.4.3c-.5.5-1.1.9-1.9.9z"/><path class="st2" d="M17.1 30l30.1-13.6V0H31.3z"/><path class="st2" d="M10.5 36.7L26.9 0H0v47.2h47.2V20.8z"/><path class="st0 st1" d="M83.7 32.4H66.8V11.1h3.7v18h11.1v-18h3.7v18h2v7.2h-3.7l.1-3.9zm11.2-2.9c2.3 0 3.5-1.1 4.2-7.4l1.2-11h14.5v21.3h-3.7v-18h-7.4l-.9 7.9c-1 9.1-3.8 10.5-7.9 10.5v-3.3zm35.5 2.9v-18H124v-3.3h16.7v3.3h-6.5v18h-3.8z"/></svg>