<svg xmlns="http://www.w3.org/2000/svg" viewBox="-220.033 372 147.033 50" width="155" height="55"><path d="M-147.315 411.278h-3.397v-4.246h.531v3.822h2.442v-3.822h.531v3.822h.425v1.274h-.531l-.001-.85zm2.229 0v-4.246h2.76v.425h-2.229v1.38h2.229v.425h-2.229v1.486h2.229v.425l-2.76.105zm7.643 0v-1.911h-2.442v1.911h-.531v-4.246h.531v1.805h2.442v-1.805h.531v4.246h-.531zm3.61 0v-3.822h-1.274v-.425h3.185v.425h-1.38v3.822h-.531zm3.715 0v-4.246h1.699c.849 0 1.38.637 1.38 1.274 0 .743-.531 1.274-1.38 1.274h-1.168v1.699h-.531zm2.442-2.972a.837.837 0 0 0-.849-.849h-1.062v1.592h1.062c.53 0 .849-.319.849-.743zm4.777 2.548c.531 0 .849-.318.955-1.699l.212-2.123h2.548v4.246h-.531v-3.822h-1.592l-.212 1.699c-.212 1.911-.743 2.123-1.486 2.123l.106-.424zm8.917.424l-.425-.955h-2.123l-.425.955h-.637l1.699-4.246h.637l1.699 4.246h-.425zm-1.486-3.715l-.955 2.335h1.805l-.85-2.335zm3.291 3.078l.318-.318c.212.318.743.531 1.274.531.637 0 1.062-.318 1.062-.849s-.425-.743-1.062-.743h-.849v-.425h.849c.531 0 1.062-.212 1.062-.743 0-.425-.425-.743-1.062-.743-.531 0-.849.212-1.168.531l-.318-.318c.318-.318.849-.637 1.486-.637.849 0 1.486.425 1.486 1.168 0 .637-.531.955-.955.955.425 0 .955.318.955 1.062s-.637 1.274-1.592 1.274c-.637-.108-1.274-.426-1.486-.745zm5.095.637v-4.246h2.76v.425h-2.229v1.38h2.229v.425h-2.229v1.486h2.229v.425l-2.76.105zm4.671 0v-4.246h1.699c.849 0 1.38.637 1.38 1.274 0 .743-.531 1.274-1.38 1.274h-1.168v1.699h-.531zm2.442-2.972a.837.837 0 0 0-.849-.849h-1.062v1.592h1.062c.53 0 .849-.319.849-.743zm5.308 2.972v-1.911h-2.442v1.911h-.531v-4.246h.531v1.805h2.442v-1.805h.531v4.246h-.531zm3.184-4.246v1.698h1.168c.849 0 1.38.637 1.38 1.274s-.425 1.274-1.38 1.274h-1.699v-4.246h.531zm0 2.123v1.592h1.062c.531 0 .849-.318.849-.849 0-.531-.318-.849-.849-.849l-1.062.106zm2.973 2.123v-4.246h.531v4.246h-.531zm5.52 0l-1.38-1.805-1.38 1.805h-.637l1.699-2.229-1.592-2.017h.637l1.274 1.698 1.274-1.698h.637l-1.592 2.017 1.699 2.229h-.639zm-66.773 7.643V415.1h-1.274v-.425h3.185v.425h-1.38v3.822h-.531zm3.716 0v-4.246h2.76v.425h-2.229v1.38h2.229v.425h-2.229v1.486h2.229v.425l-2.76.105zm7.537 0l-1.38-1.805-1.38 1.805h-.637l1.699-2.229-1.592-2.017h.637l1.274 1.698 1.274-1.698h.637l-1.592 2.017 1.699 2.229h-.639zm5.308 0v-2.017h-2.442v1.911h-.531v-4.246h.531v1.805h2.442v-1.805h.531v4.246h-.531v.106zm2.441-2.123c0-1.274.849-2.229 2.123-2.229s2.123.955 2.123 2.229-.849 2.229-2.123 2.229c-1.274-.106-2.123-.955-2.123-2.229zm3.61 0c0-.955-.637-1.699-1.592-1.699s-1.592.743-1.592 1.699.637 1.699 1.592 1.699c1.061 0 1.592-.743 1.592-1.699zm1.91 1.699c.531 0 .849-.318.955-1.699l.212-2.123h2.548v4.246h-.531V415.1h-1.592l-.212 1.699c-.212 1.911-.743 2.123-1.486 2.123l.106-.425zm5.733-1.699c0-1.274.849-2.229 2.123-2.229s2.123.955 2.123 2.229-.849 2.229-2.123 2.229c-1.274-.106-2.123-.955-2.123-2.229zm3.715 0c0-.955-.637-1.699-1.592-1.699s-1.592.743-1.592 1.699.637 1.699 1.592 1.699 1.592-.743 1.592-1.699zm2.442 2.123v-4.246h2.76v.425h-2.229v3.822h-.531zm4.565 0v-4.246h.531v3.291l2.442-3.291h.531v4.246h-.531v-3.397l-2.442 3.397h-.531zm5.52 0v-4.246h.531v3.291l2.442-3.291h.531v4.246h-.531v-3.397l-2.442 3.397h-.531zm1.805-4.564c-.425 0-.849-.212-1.168-.531l.212-.212c.212.318.531.425.849.425s.637-.212.849-.425l.212.212c-.105.318-.53.531-.954.531zm-100.425-10.51l31.953-14.437V372h-16.879l-15.074 31.847z" fill="#474747"/><path d="M-208.886 410.96l17.41-38.96h-28.556v50h50.106v-27.919l-38.96 16.879zm75.583-16.03h-15.711v-19.745h3.503v16.773h10.297v-16.773h3.503v16.773h1.805v6.688h-3.503l.106-3.716zm10.085-2.654c2.123 0 3.291-1.062 3.928-6.9l1.168-10.191h13.482v19.851h-3.503v-16.879h-6.9l-.849 7.325c-.955 8.386-3.503 9.766-7.325 9.766l-.001-2.972zm32.803 2.654v-16.773h-6.051v-2.972h15.499v3.079h-6.051v16.773h-3.397v-.107z" fill="#474747"/></svg>