<svg id="Layer_1" xmlns="http://www.w3.org/2000/svg" viewBox="0 0 141.5 47.2"><style>.st0{fill-rule:evenodd;clip-rule:evenodd;fill:#3ea3dc}.st1{fill:#12100b}</style><path class="st0" d="M17.1 30l30.1-13.6V0H31.3z"/><path class="st0" d="M10.5 36.7L26.9 0H0v47.2h47.2V20.8z"/><path class="st1" d="M83.7 32.4H66.8V11.1h3.7v18h11.1v-18h3.7v18h2v7.2h-3.7v-3.9zm11.6-2.9c2.3 0 3.5-1.1 4.2-7.4l1.2-11h14.5v21.3h-3.7v-18h-7.4l-.9 7.9c-1 9.1-3.8 10.5-7.9 10.5v-3.3zm36 2.9v-18h-6.5v-3.3h16.7v3.3H135v18h-3.7z"/></svg>