<?xml version="1.0" encoding="utf-8"?>
<!-- Generator: Adobe Illustrator 19.2.0, SVG Export Plug-In . SVG Version: 6.00 Build 0)  -->
<svg version="1.1" id="Слой_1" xmlns="http://www.w3.org/2000/svg" xmlns:xlink="http://www.w3.org/1999/xlink" x="0px" y="0px"
	 viewBox="0 0 67 10" style="enable-background:new 0 0 67 10;" xml:space="preserve">
<style type="text/css">
	.st0{fill:#FFFFFF;}
	.st1{fill:#E72273;}
	.st2{fill-rule:evenodd;clip-rule:evenodd;fill:#FFFFFF;}
</style>
<g>
	<polygon class="st0" points="7.6,9.7 2.8,5.1 2.8,9.7 0.3,9.7 0.3,0.2 1.2,0.2 6,4.9 6,0.2 8.5,0.2 8.5,9.7 7.6,9.7 	"/>
	<path class="st0" d="M28,6.4c0.4-0.3,0.7-0.6,0.9-1c0.2-0.4,0.4-0.8,0.4-1.3c0.1-0.4,0-0.9-0.1-1.4c-0.1-0.5-0.3-0.9-0.6-1.2
		c-0.3-0.4-0.6-0.7-1.1-0.9c-0.5-0.2-1-0.3-1.6-0.3h-4.2v9.5h2.4V6.9h1.3l1.6,2.8h2.7V9.4L28,6.4z M27,3.9c0,0.2-0.2,0.4-0.3,0.6
		c-0.2,0.2-0.4,0.2-0.6,0.2h-1.7V2.4c0.1,0,0.3,0,0.5,0c0.2,0,0.5,0,0.6,0c0.2,0,0.4,0,0.5,0c0.3,0,0.5,0.1,0.7,0.3
		C26.9,2.8,27,3,27,3.2C27,3.5,27,3.7,27,3.9z"/>
	<path class="st0" d="M39.1,2.7c-0.3-0.7-0.9-1.3-1.6-1.8c-0.7-0.5-1.6-0.7-2.6-0.7h-3.6v9.5h3.6c1,0,1.8-0.2,2.6-0.7
		c0.7-0.5,1.2-1.1,1.6-1.8c0.3-0.7,0.5-1.5,0.5-2.3C39.6,4.2,39.4,3.4,39.1,2.7z M37,6.2c-0.2,0.4-0.4,0.7-0.8,0.9
		c-0.4,0.2-0.8,0.4-1.3,0.4h-1.2V2.4h1.2c0.5,0,0.9,0.1,1.3,0.4c0.4,0.2,0.6,0.6,0.8,0.9c0.2,0.4,0.2,0.8,0.2,1.2
		C37.2,5.4,37.1,5.8,37,6.2z"/>
	<path class="st1" d="M57.3,6.4c0.4-0.3,0.7-0.6,0.9-1c0.2-0.4,0.4-0.8,0.4-1.3c0.1-0.4,0-0.9-0.1-1.4c-0.1-0.5-0.3-0.9-0.6-1.2
		c-0.3-0.4-0.6-0.7-1.1-0.9c-0.5-0.2-1-0.3-1.6-0.3h-4.2v9.5h2.4V6.9h1.3l1.6,2.8h2.7V9.4L57.3,6.4z M56.2,3.9
		c0,0.2-0.2,0.4-0.3,0.6c-0.2,0.2-0.4,0.2-0.6,0.2h-1.7V2.4c0.1,0,0.3,0,0.5,0c0.2,0,0.5,0,0.6,0c0.2,0,0.4,0,0.5,0
		c0.3,0,0.5,0.1,0.7,0.3c0.2,0.2,0.3,0.4,0.3,0.6C56.3,3.5,56.3,3.7,56.2,3.9z"/>
	<polygon class="st1" points="64.4,2.4 64.4,9.7 62,9.7 62,2.4 59.6,2.4 59.6,0.2 66.7,0.2 66.7,2.4 64.4,2.4 	"/>
	<path class="st2" d="M19.6,2.8c-0.2-0.5-0.5-1-0.9-1.4l1-1.3l-2-0.1l-0.4,0.5c-0.1-0.1-0.3-0.1-0.4-0.2c-0.6-0.2-1.2-0.3-1.8-0.3
		c-0.6,0-1.2,0.1-1.8,0.3c-0.6,0.2-1.1,0.5-1.6,0.9c-0.5,0.4-0.8,0.9-1.1,1.5c-0.3,0.6-0.4,1.4-0.4,2.2c0,0.8,0.1,1.5,0.4,2.2
		c0.2,0.5,0.5,0.9,0.8,1.2l-1.2,1.6l2,0l0.4-0.5c0.2,0.1,0.4,0.2,0.6,0.3c0.6,0.2,1.2,0.3,1.8,0.3c0.6,0,1.2-0.1,1.8-0.3
		c0.6-0.2,1.1-0.5,1.6-0.9c0.5-0.4,0.8-0.9,1.1-1.6C19.9,6.5,20,5.8,20,5C20,4.2,19.9,3.5,19.6,2.8z M12.8,5c0-0.5,0.1-1,0.4-1.4
		c0.2-0.4,0.5-0.7,0.9-0.9c0.4-0.2,0.7-0.3,1.1-0.3c0.3,0,0.5,0,0.7,0.1l-2.8,3.8C12.9,5.9,12.8,5.5,12.8,5z M17.2,6.4
		c-0.2,0.4-0.5,0.7-0.9,0.9c-0.4,0.2-0.7,0.3-1.1,0.3c-0.3,0-0.6-0.1-0.9-0.2l2.9-3.9c0,0,0,0,0,0.1C17.4,4,17.6,4.4,17.6,5
		C17.6,5.5,17.4,6,17.2,6.4z"/>
	<path class="st1" d="M45.6,0.1h-1l-4.3,9.3v0.4h2.4l0.6-1.2h3.7l0.6,1.2h2.4V9.4L45.6,0.1z M44,6.5L45,4l1.1,2.5H44z"/>
</g>
</svg>
