<svg xmlns="http://www.w3.org/2000/svg" xmlns:xlink="http://www.w3.org/1999/xlink" viewBox="0 0 67 10" enable-background="new 0 0 67 10"><style>.st0{filter:url(#Adobe_OpacityMaskFilter)}.st1{mask:url(#SVGID_1_)}</style><defs><filter id="Adobe_OpacityMaskFilter" filterUnits="userSpaceOnUse" x="-.9" y="-13.9" width="77.8" height="34.7"><feFlood result="back" flood-color="#fff" flood-opacity="1"/><feBlend in="SourceGraphic" in2="back"/></filter></defs><g class="st1"><defs><path id="SVGID_2_" d="M7.4 9.8L2.5 5.1v4.7H0V.1h.9l4.8 4.8V.2h2.5v9.6h-.8zm12.1-2.6a5 5 0 0 1-1.1 1.6c-.5.4-1 .7-1.6.9-.6.2-1.2.3-1.8.3-.6 0-1.2-.1-1.8-.3-.6-.2-1.1-.5-1.6-.9s-.8-.9-1.1-1.6c-.3-.7-.4-1.4-.4-2.2 0-.8.1-1.5.4-2.2.3-.6.7-1.2 1.1-1.6.5-.4 1-.7 1.6-.9.6-.2 1.2-.3 1.8-.3.6 0 1.2.1 1.8.3.6.2 1.1.5 1.6.9s.8.9 1.1 1.6c.3.6.4 1.4.4 2.2 0 .8-.1 1.5-.4 2.2zm-2.4-3.6c-.2-.4-.5-.7-.9-.9-.4-.2-.7-.3-1.2-.3-.4 0-.8.1-1.2.3-.4.2-.7.5-.9.9-.2.4-.3.8-.3 1.4 0 .6.1 1 .4 1.4.2.4.5.7.9.9.4.2.7.3 1.2.3.4 0 .8-.1 1.2-.3.4-.2.7-.5.9-.9.1-.4.2-.9.2-1.4 0-.6-.1-1-.3-1.4zm12.8 6.2h-2.7L25.5 7h-1.3v2.8h-2.5V.2H26c.6 0 1.1.1 1.6.4.5.2.9.5 1.1.9.3.4.5.8.6 1.2.1.5.1.9.1 1.4-.1.5-.2.9-.4 1.3s-.6.8-.9 1L30 9.5v.3h-.1zm-3-6.6c0-.2-.1-.4-.3-.6-.2-.2-.4-.3-.7-.3h-1.8v2.4H26c.3 0 .5-.1.6-.2.2-.2.3-.4.3-.6.1-.2.1-.4 0-.7zm12.2 4.1c-.3.7-.9 1.3-1.6 1.8-.7.4-1.5.7-2.5.7h-3.6V.2H35c1 0 1.9.2 2.6.7.7.5 1.3 1.1 1.6 1.8.3.7.5 1.5.5 2.3-.1.8-.2 1.6-.6 2.3zM37 3.7c-.2-.4-.4-.7-.8-1-.4-.3-.8-.4-1.3-.4h-1.2v5.1H35c.5 0 .9-.1 1.3-.4.4-.3.6-.6.8-1 .2-.4.2-.8.2-1.2-.1-.3-.1-.7-.3-1.1zm10.6 6.1L47 8.6h-3.8l-.6 1.2h-2.4v-.4L44.6 0h1.1L50 9.4v.4h-2.4zm-2.5-5.9L44 6.4h2.2l-1.1-2.5zm14.2 5.9h-2.7L55 7h-1.3v2.8h-2.5V.2h4.2c.6 0 1.1.1 1.6.4.5.2.9.5 1.1.9.3.4.5.8.6 1.2.1.5.1.9.1 1.4-.1.5-.2.9-.4 1.3s-.6.8-.9 1l1.9 3.1v.3h-.1zm-2.9-6.6c0-.2-.1-.4-.3-.6-.2-.2-.4-.3-.7-.3h-1.8v2.4h1.8c.3 0 .5-.1.6-.2.2-.2.3-.4.3-.6.2-.2.2-.4.1-.7zm8.3-.8v7.4h-2.4V2.4h-2.4V.2H67v2.2h-2.3z"/></defs><clipPath id="SVGID_3_"><use xlink:href="#SVGID_2_" overflow="visible"/></clipPath><g clip-path="url(#SVGID_3_)"><image width="3248" height="1444" xlink:href="165DB62D833F07FE.jpg" transform="matrix(.02394 0 0 .02402 -.86 -13.928)" overflow="visible"/></g><defs><path id="SVGID_4_" d="M10.1 10h2.1L19.6.1l-2-.1-7.5 10z"/></defs><clipPath id="SVGID_5_"><use xlink:href="#SVGID_4_" overflow="visible"/></clipPath><g clip-path="url(#SVGID_5_)"><image width="3248" height="1444" xlink:href="165DB62D833F0802.jpg" transform="matrix(.02394 0 0 .02402 -.86 -13.928)" overflow="visible"/></g></g></svg>