<svg xmlns="http://www.w3.org/2000/svg" viewBox="0 0 50.692 50.692"><path d="M36.685 30.747l5.113-5.113m-5.113 0l5.113 5.113M12.825 40.972l5.113-5.113m-5.113 0l5.113 5.113m6.817 0l5.113-5.113m-5.113 0l5.113 5.113m-5.113-10.225l5.113-5.113m-5.113 0l5.113 5.113m5.113-13.635a1.704 1.704 0 0 0 3.408 0v-6.817a1.704 1.704 0 0 0-3.408 0v6.817zm-7.07-3.408h7.07" fill="none" stroke="#30a4dc" stroke-width="2" stroke-linecap="round" stroke-linejoin="round" stroke-miterlimit="10"/><path fill="none" stroke="#30a4dc" stroke-width="2" stroke-linecap="round" stroke-linejoin="round" stroke-miterlimit="10" d="M38.389 13.704h8.522v34.085H7.713V29.042"/><path fill="none" stroke="#30a4dc" stroke-width="2" stroke-linecap="round" stroke-linejoin="round" stroke-miterlimit="10" d="M36.685 35.859h5.113v5.113h-5.113z"/><circle cx="13.508" cy="14.387" r="10.225" fill="none" stroke="#30a4dc" stroke-width="2" stroke-linecap="round" stroke-linejoin="round" stroke-miterlimit="10"/><path fill="none" stroke="#30a4dc" stroke-width="2" stroke-linecap="round" stroke-linejoin="round" stroke-miterlimit="10" d="M6.691 14.387h6.817m0-6.818v6.817"/></svg>