<svg xmlns="http://www.w3.org/2000/svg" viewBox="0 0 54.7 38.9" width="50" height="50"><path fill="none" stroke="#30a4dc" stroke-width="2" stroke-linecap="round" stroke-linejoin="round" stroke-miterlimit="10" d="M50.6 32.6c0 1.1-.9 2-2 2h-42c-1.1 0-2-.9-2-2v-26c0-1.1.9-2 2-2h42c1.1 0 2 .9 2 2v26zm-46-22h46m-46 4h46m-40 12h14"/><path fill="none" stroke="#30a4dc" stroke-width="2" stroke-linecap="round" stroke-linejoin="round" stroke-miterlimit="10" d="M41.6 22.6c-.8 0-1.5.3-2 .8-.5-.5-1.2-.8-2-.8-1.7 0-3 1.3-3 3s1.3 3 3 3c.8 0 1.5-.3 2-.8.5.5 1.2.8 2 .8 1.7 0 3-1.3 3-3s-1.4-3-3-3z"/></svg>