<svg id="Webicons" xmlns="http://www.w3.org/2000/svg" viewBox="0 0 55 60.3"><style>.st0{fill:none;stroke:#fff;stroke-width:2;stroke-linecap:round;stroke-linejoin:round;stroke-miterlimit:10}</style><circle class="st0" cx="26.9" cy="38.4" r="7"/><path class="st0" d="M19.9 24.3c0-3.9 3.1-7 7-7s7 3.1 7 7M5.9 25.4h42v26h-42zM11.9 25.4c0 3.3-2.7 6-6 6M47.6 31.4c-3.3 0-6-2.7-6-6M41.9 51.4c0-3.3 2.7-6 6-6M5.9 45.4c3.3 0 6 2.7 6 6"/><g><path class="st0" d="M5.9 25.4l-2-12.3 41.4-7.7 4.6 26.2-2 .7M9.8 12c.6 3.3-1.6 6.6-4.8 7.2M46.3 11.4c-3.3.6-6.4-1.6-7-5"/></g></svg>