<svg xmlns="http://www.w3.org/2000/svg" viewBox="0 0 47.057 46.594"><g fill="#30a4dc"><path d="M21.188 42.863l-2.231-.393-2.901 2.914-4.822-2.248.368-4.096-1.734-1.456-3.971 1.073L2.846 34.3l2.366-3.364-.774-2.128-3.974-1.056L0 22.453l3.73-1.729.394-2.23-2.915-2.902 2.249-4.821 4.096.368 1.455-1.735-1.073-3.97 4.358-3.051 3.363 2.366 2.128-.774L18.84 0l5.3-.464 1.729 3.731 2.231.393L31.001.746l4.821 2.248-.367 4.096 1.733 1.456 3.971-1.073 3.052 4.357-2.366 3.364.774 2.128 3.974 1.055.464 5.3-3.731 1.729-.393 2.23 2.915 2.902-2.028 4.345-1.387-1.753 1.009-2.166-2.659-2.647.755-4.285 3.405-1.579-.218-2.504-3.628-.963-1.489-4.09 2.16-3.068-1.442-2.06-3.622.979-3.334-2.796.336-3.739-2.278-1.062-2.649 2.66-4.284-.756-1.578-3.404-2.505.219-.963 3.627-4.089 1.488-3.069-2.16-2.06 1.443.98 3.623-2.797 3.333-3.737-.336-1.063 2.279 2.659 2.647-.754 4.285-3.406 1.579.219 2.504 3.628.963 1.488 4.089-2.159 3.069 1.441 2.06 3.623-.979 3.334 2.796-.336 3.738 2.278 1.062 2.648-2.659 4.285.756 1.578 3.404 2.505-.219.962-3.627 4.089-1.488 3.073 2.162.098-.067.308.352.951 1.201-1.363.953-3.364-2.366-2.128.774-1.054 3.975-5.3.464z"/><path d="M42.527 46.537a4.457 4.457 0 0 1-3.511-1.697l-8.652-10.93c-.31.034-.623.052-.935.052a8.401 8.401 0 0 1-6.623-3.2 8.447 8.447 0 0 1-1.699-3.786 1 1 0 0 1 1.293-1.122l4.614 1.488a2.468 2.468 0 0 0 3.116-1.596 2.465 2.465 0 0 0-.154-1.888 2.453 2.453 0 0 0-1.441-1.228l-4.614-1.488a1.007 1.007 0 0 1-.667-.724 1.005 1.005 0 0 1 .276-.944c.211-.206.433-.399.656-.577a8.36 8.36 0 0 1 5.237-1.824c2.6 0 5.016 1.168 6.627 3.204a8.467 8.467 0 0 1 1.331 8.08l8.652 10.929a4.482 4.482 0 0 1-.73 6.286 4.44 4.44 0 0 1-2.776.965zM30.79 31.838c.308 0 .594.138.784.379l9.009 11.381a2.465 2.465 0 0 0 1.943.939c.562 0 1.094-.185 1.535-.535.518-.41.845-.998.921-1.656a2.45 2.45 0 0 0-.517-1.822l-9.01-11.381a1.002 1.002 0 0 1-.132-1.023 6.431 6.431 0 0 0-.841-6.604 6.414 6.414 0 0 0-5.061-2.446 6.377 6.377 0 0 0-3.042.764l2.767.893a4.44 4.44 0 0 1 2.607 2.219 4.435 4.435 0 0 1 .277 3.413 4.462 4.462 0 0 1-5.631 2.885l-2.766-.893c.202.414.448.805.737 1.169a6.412 6.412 0 0 0 5.057 2.442c.394 0 .79-.037 1.179-.108l.045-.008.139-.008z"/></g></svg>