<svg xmlns="http://www.w3.org/2000/svg" preserveAspectRatio="xMidYMid" width="47.906" height="47.94" viewBox="0 0 47.906 47.94"><path fill="#30a4dc" fill-rule="evenodd" d="M47.058 38.29l-2.668.419a8.85 8.85 0 0 1-.492 1.201l1.63 2.115a.997.997 0 0 1-.079 1.309l-2.005 2.035a.998.998 0 0 1-1.298.106l-2.184-1.592a8.605 8.605 0 0 1-1.173.495l-.364 2.664a.997.997 0 0 1-.981.863l-2.861.02h-.007a.998.998 0 0 1-.985-.841l-.428-2.675a9.051 9.051 0 0 1-1.214-.499l-2.087 1.635a1 1 0 0 1-1.316-.074l-2.032-2.004a.996.996 0 0 1-.104-1.299l1.592-2.176a8.973 8.973 0 0 1-.516-1.229l-2.628-.312a.998.998 0 0 1-.88-.984l-.021-2.862a.997.997 0 0 1 .86-.995l2.638-.368c.137-.43.308-.849.51-1.254l-1.635-2.101a.999.999 0 0 1 .077-1.314l2.008-2.038a1.002 1.002 0 0 1 1.305-.102l2.159 1.597a9.3 9.3 0 0 1 1.203-.508l.352-2.654a.996.996 0 0 1 .982-.867l2.86-.019h.007c.495 0 .916.363.987.854l.385 2.646c.425.137.838.306 1.237.504l2.11-1.631a.998.998 0 0 1 1.311.079l2.032 2.005a.998.998 0 0 1 .107 1.297l-1.591 2.189a8.388 8.388 0 0 1 .499 1.185l2.653.346a.998.998 0 0 1 .868.983l.02 2.858a.998.998 0 0 1-.843.993zm-1.166-2.968l-2.435-.318a.997.997 0 0 1-.839-.75 6.562 6.562 0 0 0-.343-1.015 6.43 6.43 0 0 0-.445-.858 1 1 0 0 1 .041-1.112l1.462-2.012-.801-.79-1.936 1.497a.996.996 0 0 1-1.124.066 6.907 6.907 0 0 0-1.944-.793.998.998 0 0 1-.755-.827l-.352-2.427-1.124.007-.322 2.438a.998.998 0 0 1-.753.839c-.331.081-.66.192-1.008.339-.32.139-.614.29-.888.46a1.002 1.002 0 0 1-1.116-.048l-1.981-1.466-.787.799 1.501 1.929c.254.326.28.774.067 1.128a6.784 6.784 0 0 0-.797 1.959.998.998 0 0 1-.833.761l-2.422.337.009 1.108 2.412.286a.995.995 0 0 1 .855.765c.079.336.197.686.349 1.041.132.308.283.6.45.869.216.346.2.788-.041 1.117l-1.463 2 .793.782 1.915-1.501a.995.995 0 0 1 1.132-.068 6.896 6.896 0 0 0 1.919.793.997.997 0 0 1 .745.811l.393 2.455 1.139-.008.334-2.444a.995.995 0 0 1 .745-.833 6.695 6.695 0 0 0 1.858-.786 1 1 0 0 1 1.116.04l2.008 1.463.791-.801-1.497-1.941a.998.998 0 0 1-.066-1.123 6.831 6.831 0 0 0 .783-1.904.998.998 0 0 1 .814-.749l2.449-.385-.008-1.13zm-8.396 4.3a3.991 3.991 0 0 1-1.568.323 3.998 3.998 0 0 1-3.702-5.479 3.995 3.995 0 0 1 5.189-2.217 3.965 3.965 0 0 1 2.183 2.135c.419.98.431 2.066.033 3.057a3.96 3.96 0 0 1-2.135 2.181zm.268-4.453a1.986 1.986 0 0 0-1.092-1.068 1.997 1.997 0 0 0-2.594 1.109 1.998 1.998 0 0 0 1.11 2.595 1.986 1.986 0 0 0 1.525-.018c.49-.21.869-.597 1.066-1.09a1.98 1.98 0 0 0-.015-1.528zm-6.312-22.276l-3.464 2.069a11.6 11.6 0 0 1-.013 2.229l3.442 2.034a.997.997 0 0 1 .412 1.245l-1.549 3.695a.998.998 0 0 1-1.165.581l-3.904-.992a12.022 12.022 0 0 1-1.604 1.579l.998 3.865a.997.997 0 0 1-.588 1.173l-3.7 1.516a.998.998 0 0 1-1.236-.413l-2.062-3.465c-.729.066-1.472.063-2.212-.01l-2.062 3.444a.995.995 0 0 1-1.241.407l-3.695-1.547a.997.997 0 0 1-.582-1.163l.982-3.919a12.073 12.073 0 0 1-1.593-1.62l-3.832 1.025a1 1 0 0 1-1.181-.586L.087 20.339a.997.997 0 0 1 .415-1.236l3.462-2.051a12.065 12.065 0 0 1 .016-2.301L.546 12.776a.997.997 0 0 1-.423-1.25L1.67 7.829a1 1 0 0 1 1.182-.577l3.845 1.044a11.89 11.89 0 0 1 1.657-1.64L7.339 2.803a.999.999 0 0 1 .587-1.178l3.71-1.517a.998.998 0 0 1 1.239.421l2.024 3.458a12.051 12.051 0 0 1 2.264.011l2.04-3.442a.998.998 0 0 1 1.244-.412l3.697 1.549a.999.999 0 0 1 .578 1.177l-1.028 3.862a12.1 12.1 0 0 1 1.623 1.641l3.856-1.005a1 1 0 0 1 1.175.588l1.515 3.702a.997.997 0 0 1-.411 1.235zm-2.62-3.374l-3.652.951a1 1 0 0 1-1.059-.38 10.047 10.047 0 0 0-2.154-2.179.997.997 0 0 1-.37-1.058l.973-3.655-2.093-.878-1.932 3.26a.997.997 0 0 1-1.017.477 10.022 10.022 0 0 0-3.015-.016 1 1 0 0 1-1.007-.483L11.59 2.283l-2.099.857.962 3.65a.998.998 0 0 1-.382 1.065 9.873 9.873 0 0 0-2.193 2.169.997.997 0 0 1-1.065.371l-3.64-.988-.87 2.078 3.252 1.871a.998.998 0 0 1 .486 1.039 9.624 9.624 0 0 0-.128 1.603c0 .487.035.969.106 1.431.06.403-.129.801-.478 1.009L2.26 20.381l.857 2.09 3.627-.97c.399-.105.825.044 1.067.38a10.067 10.067 0 0 0 2.121 2.162 1 1 0 0 1 .369 1.041l-.93 3.71 2.106.882 1.951-3.259a1.015 1.015 0 0 1 1.013-.473c.99.151 1.992.158 2.953.011a.997.997 0 0 1 1.007.476l1.955 3.283 2.099-.86-.945-3.66a.997.997 0 0 1 .382-1.059 10.033 10.033 0 0 0 2.142-2.105 1 1 0 0 1 1.043-.368l3.696.938.88-2.1-3.26-1.926a.997.997 0 0 1-.477-1.016 9.59 9.59 0 0 0 .018-2.973.997.997 0 0 1 .475-1.004l3.283-1.961-.86-2.101zM15.975 21.983a5.966 5.966 0 0 1-4.232-1.751A5.951 5.951 0 0 1 9.989 16c0-1.6.622-3.104 1.755-4.235a5.942 5.942 0 0 1 4.232-1.753c1.599 0 3.102.623 4.232 1.754a5.943 5.943 0 0 1 1.753 4.232 5.948 5.948 0 0 1-1.753 4.234 5.968 5.968 0 0 1-4.233 1.751zm2.822-8.806a3.959 3.959 0 0 0-2.821-1.17 3.964 3.964 0 0 0-2.822 1.169 3.957 3.957 0 0 0-1.169 2.823c0 1.066.415 2.069 1.169 2.822a3.994 3.994 0 0 0 5.643 0 3.97 3.97 0 0 0 1.169-2.823 3.959 3.959 0 0 0-1.169-2.821z"/></svg>