<svg xmlns="http://www.w3.org/2000/svg" viewBox="0 0 43.007 46.68"  width="50" height="50"><g fill="none" stroke="#30a4dc" stroke-width="2" stroke-linecap="round" stroke-linejoin="round" stroke-miterlimit="10"><path d="M26.594 36.255h-9.618m1.374 5.496v1.374c0 .759.615 1.374 1.374 1.374h4.122c.759 0 1.374-.615 1.374-1.374v-1.374"/><path d="M16.976 37.629c0-4.089-5.496-8.669-5.496-14.427a10.262 10.262 0 0 1 10.305-10.305A10.262 10.262 0 0 1 32.09 23.202c0 5.758-5.496 10.338-5.496 14.427v4.122h-9.618v-4.122"/><path d="M21.11 17.054c-3.138.326-5.508 2.909-5.508 6.148 0 1.748 1.662 4.337 2.737 6.211"/></g><path fill="none" stroke="#30a4dc" stroke-width="2" stroke-linecap="round" stroke-linejoin="round" stroke-miterlimit="10" d="M21.771 8.525V2.056M10.209 14.629l-5.257-3.988m3.085 16.683L2.968 29.04m32.68-1.716l5.069 1.716m-7.004-14.411l5.258-3.988"/></svg>