<?xml version="1.0" encoding="iso-8859-1"?>
<!-- Generator: Adobe Illustrator 19.1.0, SVG Export Plug-In . SVG Version: 6.00 Build 0)  -->
<svg version="1.1" id="Webicons" xmlns="http://www.w3.org/2000/svg" xmlns:xlink="http://www.w3.org/1999/xlink" x="0px" y="0px"
	 viewBox="0 0 43.007 46.68" style="enable-background:new 0 0 43.007 46.68;" xml:space="preserve">
<g>
	
		<line style="fill:none;stroke:#FFFFFF;stroke-width:2;stroke-linecap:round;stroke-linejoin:round;stroke-miterlimit:10;" x1="26.594" y1="36.255" x2="16.976" y2="36.255"/>
	<path style="fill:none;stroke:#FFFFFF;stroke-width:2;stroke-linecap:round;stroke-linejoin:round;stroke-miterlimit:10;" d="
		M18.35,41.751v1.374c0,0.759,0.615,1.374,1.374,1.374h4.122c0.759,0,1.374-0.615,1.374-1.374v-1.374"/>
	<path style="fill:none;stroke:#FFFFFF;stroke-width:2;stroke-linecap:round;stroke-linejoin:round;stroke-miterlimit:10;" d="
		M16.976,37.629c0-4.089-5.496-8.669-5.496-14.427c0-5.758,4.613-10.305,10.305-10.305c5.692,0,10.305,4.547,10.305,10.305
		c0,5.758-5.496,10.338-5.496,14.427c0,4.089,0,4.122,0,4.122h-9.618V37.629"/>
	<path style="fill:none;stroke:#FFFFFF;stroke-width:2;stroke-linecap:round;stroke-linejoin:round;stroke-miterlimit:10;" d="
		M21.11,17.054c-3.138,0.326-5.508,2.909-5.508,6.148c0,1.748,1.662,4.337,2.737,6.211"/>
</g>
<line style="fill:none;stroke:#FFFFFF;stroke-width:2;stroke-linecap:round;stroke-linejoin:round;stroke-miterlimit:10;" x1="21.771" y1="8.525" x2="21.771" y2="2.056"/>
<line style="fill:none;stroke:#FFFFFF;stroke-width:2;stroke-linecap:round;stroke-linejoin:round;stroke-miterlimit:10;" x1="10.209" y1="14.629" x2="4.952" y2="10.641"/>
<line style="fill:none;stroke:#FFFFFF;stroke-width:2;stroke-linecap:round;stroke-linejoin:round;stroke-miterlimit:10;" x1="8.037" y1="27.324" x2="2.968" y2="29.04"/>
<line style="fill:none;stroke:#FFFFFF;stroke-width:2;stroke-linecap:round;stroke-linejoin:round;stroke-miterlimit:10;" x1="35.648" y1="27.324" x2="40.717" y2="29.04"/>
<line style="fill:none;stroke:#FFFFFF;stroke-width:2;stroke-linecap:round;stroke-linejoin:round;stroke-miterlimit:10;" x1="33.713" y1="14.629" x2="38.971" y2="10.641"/>
</svg>
