<svg xmlns="http://www.w3.org/2000/svg" viewBox="0 0 44.786 47.327"><g fill="none" stroke="#30a4dc" stroke-linecap="round" stroke-miterlimit="10"><path stroke-width="1.953" d="M.977 1.174v25.75l24.5-4.53V5.704zm38.675 25.301h-7.944c-.818 0-1.447.223-2.042.81a1166.615 1166.615 0 0 0-4.386 4.386l-4.66-4.661c-.571-.571-1.49-.71-2.145-.238a1.623 1.623 0 0 0-.208 2.47l5.867 5.867a1.62 1.62 0 0 0 2.292 0l3.509-3.509v13.25a1.5 1.5 0 0 0 1.5 1.5H42.31a1.5 1.5 0 0 0 1.5-1.5V30.633a4.159 4.159 0 0 0-4.158-4.158z"/><circle cx="36.872" cy="19.799" r="3.625" stroke-width="1.841"/><path stroke-width="1.953" d="M18.632 26.475l-4.093-12.093"/></g></svg>