<?xml version="1.0" encoding="iso-8859-1"?>
<!-- Generator: Adobe Illustrator 19.1.0, SVG Export Plug-In . SVG Version: 6.00 Build 0)  -->
<svg version="1.1" id="Webicons" xmlns="http://www.w3.org/2000/svg" xmlns:xlink="http://www.w3.org/1999/xlink" x="0px" y="0px"
	 viewBox="0 0 50.132 57.257" style="enable-background:new 0 0 50.132 57.257;" xml:space="preserve">
<path style="fill:none;stroke:#FFFFFF;stroke-width:2;stroke-linecap:round;stroke-linejoin:round;stroke-miterlimit:10;" d="
	M32.254,16.736c0,3.734-3.027,6.762-6.762,6.762s-6.762-3.027-6.762-6.762c0-4.49,3.434-9.72,6.762-13.101
	C28.979,6.963,32.254,11.77,32.254,16.736z"/>
<path style="fill:none;stroke:#FFFFFF;stroke-width:2;stroke-linecap:round;stroke-linejoin:round;stroke-miterlimit:10;" d="
	M14.242,21.024c2.587,1.046,3.836,3.992,2.789,6.579s-3.992,3.836-6.579,2.789c-3.11-1.258-5.771-5.102-7.18-8.355
	C6.555,20.555,10.803,19.633,14.242,21.024z"/>
<line style="fill:none;stroke:#FFFFFF;stroke-width:2;stroke-linecap:round;stroke-linejoin:round;stroke-miterlimit:10;" x1="25.492" y1="13.566" x2="25.492" y2="39.45"/>
<path style="fill:none;stroke:#FFFFFF;stroke-width:2;stroke-linecap:round;stroke-linejoin:round;stroke-miterlimit:10;" d="
	M11.127,25.082c5.508,1.984,11.258,6.172,13.365,13.787"/>
<path style="fill:none;stroke:#FFFFFF;stroke-width:2;stroke-linecap:round;stroke-linejoin:round;stroke-miterlimit:10;" d="
	M39.857,25.082c-5.508,1.984-11.258,6.172-13.365,13.787"/>
<path style="fill:none;stroke:#FFFFFF;stroke-width:2;stroke-linecap:round;stroke-linejoin:round;stroke-miterlimit:10;" d="
	M36.742,21.024c-2.587,1.046-3.836,3.992-2.789,6.579s3.992,3.836,6.579,2.789c3.11-1.258,5.771-5.102,7.18-8.355
	C44.429,20.555,40.182,19.633,36.742,21.024z"/>
<path style="fill:none;stroke:#FFFFFF;stroke-width:2;stroke-linecap:round;stroke-linejoin:round;stroke-miterlimit:10;" d="
	M45.802,33.793c0,11.217-9.093,20.31-20.31,20.31s-20.31-9.093-20.31-20.31"/>
<line style="fill:none;stroke:#FFFFFF;stroke-width:2;stroke-linecap:round;stroke-linejoin:round;stroke-miterlimit:10;" x1="14.257" y1="39.697" x2="36.632" y2="39.697"/>
</svg>
