<svg xmlns="http://www.w3.org/2000/svg" viewBox="-282 373.352 46.161 47.648"><path d="M-238.174 378.774a2.282 2.282 0 0 0-2.343-2.343l-13.891.376a2.248 2.248 0 0 0-1.019.577l-23.575 23.576a2.265 2.265 0 0 0 0 3.202l13.097 13.097a2.265 2.265 0 0 0 3.202 0l23.575-23.575c.292-.292.478-.646.577-1.019l.377-13.891zm-18.956 37.211l2.252 1.369c1.068.65 2.461.31 3.111-.758l9.263-15.237" fill="none" stroke="#30a4dc" stroke-width="1.953" stroke-linecap="round" stroke-miterlimit="10"/><path d="M-269.969 402.662l12.342-2.899.909 1.001-12.353 2.887-.898-.989zm7.756-3.213c-1.66 1.509-3.481 1.245-4.523.099-1.098-1.209-1.06-2.982.43-4.335 1.416-1.287 3.277-1.396 4.509-.041 1.241 1.367.939 3.045-.416 4.277zm-2.791-2.901c-.83.754-1.174 1.577-.686 2.114.477.525 1.246.294 2.138-.516.806-.732 1.229-1.519.708-2.093-.5-.548-1.367-.226-2.16.495zm4.685 11.609c-1.66 1.509-3.481 1.246-4.524.099-1.086-1.196-1.048-2.97.431-4.335 1.416-1.286 3.277-1.396 4.509-.04 1.241 1.367.94 3.045-.416 4.276zm-2.781-2.89c-.84.743-1.184 1.567-.695 2.104.477.524 1.246.293 2.138-.517.806-.732 1.24-1.506.719-2.079-.512-.561-1.368-.229-2.162.492z" fill="#30a4dc"/><path d="M-247.128 381.683a4 4 0 1 1-3 1.354m-15.994.005c-2.607-1.118-4.182-2.241-3.99-3.016.332-1.34 5.816-1.134 12.249.46 6.433 1.594 11.378 3.973 11.046 5.313-.124.501-.967.785-2.31.863" fill="none" stroke="#30a4dc" stroke-width="1.953" stroke-linecap="round" stroke-miterlimit="10"/></svg>