<svg xmlns="http://www.w3.org/2000/svg" preserveAspectRatio="xMidYMid" width="48" height="44" viewBox="0 0 48 44"><path fill="#30a4dc" fill-rule="evenodd" d="M45 44H3c-1.654 0-3-1.346-3-3V3c0-1.654 1.346-3 3-3h42c1.654 0 3 1.346 3 3v38c0 1.654-1.346 3-3 3zm1-41c0-.551-.448-1-1-1H3c-.552 0-1 .449-1 1v38c0 .551.448 1 1 1h42c.552 0 1-.449 1-1V3zm-5 23h-4v1a1 1 0 1 1-2 0v-1h-4a1 1 0 0 1-1-1v-4a1 1 0 0 1 1-1h4V7a1 1 0 1 1 2 0v13h4a1 1 0 0 1 1 1v4a1 1 0 0 1-1 1zm-1-4h-8v2h8v-2zm-11-8h-4v13a1 1 0 1 1-2 0V14h-4a1 1 0 0 1-1-1V9a1 1 0 0 1 1-1h4V7a1 1 0 1 1 2 0v1h4a1 1 0 0 1 1 1v4a1 1 0 0 1-1 1zm-1-4h-8v2h8v-2zM18 21a1 1 0 0 1-1 1h-4v5a1 1 0 1 1-2 0v-5H7a1 1 0 0 1-1-1v-4a1 1 0 0 1 1-1h4V7a1 1 0 1 1 2 0v9h4a1 1 0 0 1 1 1v4zm-2-3H8v2h8v-2zm-4 12c2.206 0 4 1.794 4 4 0 2.205-1.794 4-4 4s-4-1.795-4-4c0-2.206 1.794-4 4-4zm0 6c1.103 0 2-.897 2-2s-.897-2-2-2-2 .897-2 2 .897 2 2 2zm12-6c2.206 0 4 1.794 4 4 0 2.205-1.794 4-4 4s-4-1.795-4-4c0-2.206 1.794-4 4-4zm0 6c1.103 0 2-.897 2-2s-.897-2-2-2-2 .897-2 2 .897 2 2 2zm12-6c2.206 0 4 1.794 4 4 0 2.205-1.794 4-4 4s-4-1.795-4-4c0-2.206 1.794-4 4-4zm0 6c1.102 0 2-.897 2-2s-.898-2-2-2c-1.103 0-2 .897-2 2s.897 2 2 2z"/></svg>