<?xml version="1.0" encoding="iso-8859-1"?>
<!-- Generator: Adobe Illustrator 19.1.0, SVG Export Plug-In . SVG Version: 6.00 Build 0)  -->
<svg version="1.1" id="Webicons" xmlns="http://www.w3.org/2000/svg" xmlns:xlink="http://www.w3.org/1999/xlink" x="0px" y="0px"
	 viewBox="0 0 49.881 60.475" style="enable-background:new 0 0 49.881 60.475;" xml:space="preserve">
<g>
	<g>
		
			<line style="fill:none;stroke:#FFFFFF;stroke-width:2;stroke-linecap:round;stroke-linejoin:round;stroke-miterlimit:10;" x1="16.677" y1="16.592" x2="10.162" y2="16.592"/>
		
			<line style="fill:none;stroke:#FFFFFF;stroke-width:2;stroke-linecap:round;stroke-linejoin:round;stroke-miterlimit:10;" x1="16.677" y1="10.077" x2="10.162" y2="10.077"/>
		
			<line style="fill:none;stroke:#FFFFFF;stroke-width:2;stroke-linecap:round;stroke-linejoin:round;stroke-miterlimit:10;" x1="21.021" y1="46.995" x2="5.819" y2="46.995"/>
		
			<line style="fill:none;stroke:#FFFFFF;stroke-width:2;stroke-linecap:round;stroke-linejoin:round;stroke-miterlimit:10;" x1="5.819" y1="31.794" x2="21.021" y2="31.794"/>
	</g>
	<path style="fill:none;stroke:#FFFFFF;stroke-width:2;stroke-linecap:round;stroke-linejoin:round;stroke-miterlimit:10;" d="
		M16.666,18.764c0,3.304,4.355,5.429,4.355,9.817v23.843h-0.032h0.032c0,1.798-3.396,3.257-7.585,3.257s-7.585-1.459-7.585-3.257
		L5.819,28.581c0-4.388,4.355-6.513,4.355-9.817c0-3.304,0-13.03,0-13.03h6.492V18.764"/>
</g>
<path style="fill:none;stroke:#FFFFFF;stroke-width:2;stroke-linecap:round;stroke-linejoin:round;stroke-miterlimit:10;" d="
	M45.528,32.451c0,5.123-4.153,9.276-9.276,9.276s-9.276-4.153-9.276-9.276"/>
<line style="fill:none;stroke:#FFFFFF;stroke-width:2;stroke-linecap:round;stroke-linejoin:round;stroke-miterlimit:10;" x1="36.251" y1="41.727" x2="36.251" y2="52.894"/>
<ellipse style="fill:none;stroke:#FFFFFF;stroke-width:2;stroke-linecap:round;stroke-linejoin:round;stroke-miterlimit:10;" cx="36.251" cy="32.451" rx="9.276" ry="2.703"/>
<ellipse style="fill:none;stroke:#FFFFFF;stroke-width:2;stroke-linecap:round;stroke-linejoin:round;stroke-miterlimit:10;" cx="36.251" cy="53.59" rx="6.736" ry="2.092"/>
</svg>
