<svg id="Слой_1" xmlns="http://www.w3.org/2000/svg" viewBox="0 0 67 10"><style>.st0{fill:#fff}.st1{fill:#e72273}.st2{fill-rule:evenodd;clip-rule:evenodd;fill:#fff}</style><path class="st0" d="M7.6 9.7L2.8 5.1v4.6H.3V.2h.9L6 4.9V.2h2.5v9.5h-.9zM28 6.4c.4-.3.7-.6.9-1 .2-.4.4-.8.4-1.3.1-.4 0-.9-.1-1.4-.1-.5-.3-.9-.6-1.2-.3-.4-.6-.7-1.1-.9-.5-.2-1-.3-1.6-.3h-4.2v9.5h2.4V6.9h1.3L27 9.7h2.7v-.3l-1.7-3zm-1-2.5c0 .2-.2.4-.3.6-.2.2-.4.2-.6.2h-1.7V2.4H26c.3 0 .5.1.7.3.2.1.3.3.3.5v.7zM39.1 2.7c-.3-.7-.9-1.3-1.6-1.8-.7-.5-1.6-.7-2.6-.7h-3.6v9.5h3.6c1 0 1.8-.2 2.6-.7.7-.5 1.2-1.1 1.6-1.8.3-.7.5-1.5.5-2.3 0-.7-.2-1.5-.5-2.2zM37 6.2c-.2.4-.4.7-.8.9-.4.2-.8.4-1.3.4h-1.2V2.4h1.2c.5 0 .9.1 1.3.4.4.2.6.6.8.9.2.4.2.8.2 1.2 0 .5-.1.9-.2 1.3z"/><path class="st1" d="M57.3 6.4c.4-.3.7-.6.9-1 .2-.4.4-.8.4-1.3.1-.4 0-.9-.1-1.4-.1-.5-.3-.9-.6-1.2-.3-.4-.6-.7-1.1-.9-.5-.2-1-.3-1.6-.3H51v9.5h2.4V6.9h1.3l1.6 2.8H59v-.3l-1.7-3zm-1.1-2.5c0 .2-.2.4-.3.6-.2.2-.4.2-.6.2h-1.7V2.4h1.6c.3 0 .5.1.7.3.2.2.3.4.3.6.1.2.1.4 0 .6zM64.4 2.4v7.3H62V2.4h-2.4V.2h7.1v2.2h-2.3z"/><path class="st2" d="M19.6 2.8c-.2-.5-.5-1-.9-1.4l1-1.3-2-.1-.4.5c-.1-.1-.3-.1-.4-.2-.6-.2-1.2-.3-1.8-.3-.6 0-1.2.1-1.8.3-.6.2-1.1.5-1.6.9s-.8.9-1.1 1.5c-.3.6-.4 1.4-.4 2.2 0 .8.1 1.5.4 2.2.2.5.5.9.8 1.2l-1.2 1.6h2l.4-.5.6.3c.6.2 1.2.3 1.8.3.6 0 1.2-.1 1.8-.3.6-.2 1.1-.5 1.6-.9s.8-.9 1.1-1.6c.4-.7.5-1.4.5-2.2 0-.8-.1-1.5-.4-2.2zM12.8 5c0-.5.1-1 .4-1.4.2-.4.5-.7.9-.9.4-.2.7-.3 1.1-.3.3 0 .5 0 .7.1l-2.8 3.8c-.2-.4-.3-.8-.3-1.3zm4.4 1.4c-.2.4-.5.7-.9.9-.4.2-.7.3-1.1.3-.3 0-.6-.1-.9-.2l2.9-3.9v.1c.2.4.4.8.4 1.4 0 .5-.2 1-.4 1.4z"/><path class="st1" d="M45.6.1h-1l-4.3 9.3v.4h2.4l.6-1.2H47l.6 1.2H50v-.4L45.6.1zM44 6.5L45 4l1.1 2.5H44z"/></svg>