<svg id="Layer_1" xmlns="http://www.w3.org/2000/svg" viewBox="0 0 20 20"><style>.st0{fill:#32a4dd}</style><path class="st0" d="M20 15.8c0 .3-.1.6-.3.8l-2.8 2.8c-.1.1-.3.3-.5.4s-.4.2-.6.2h-.4c-.3 0-.7 0-1.3-.1s-1.3-.3-2.2-.7c-.9-.4-1.9-.9-3-1.6s-2.3-1.7-3.5-3c-1-1-1.8-1.9-2.5-2.8-.6-.9-1.2-1.7-1.6-2.5-.3-.7-.6-1.4-.8-2S.2 6.1.1 5.7C0 5.2 0 4.9 0 4.6v-.4c0-.2.1-.4.2-.6.1-.2.2-.4.4-.5L3.4.3c.2-.2.4-.3.7-.3.2 0 .3.1.5.2.1.1.3.2.4.4l2.3 4.3c.1.2.2.5.1.7-.2.3-.3.5-.5.7l-1 1-.1.1v.2c.1.3.2.6.4 1 .1.4.4.8.7 1.3.4.5.9 1 1.5 1.7.6.6 1.2 1.2 1.7 1.5.5.4.9.6 1.2.8s.6.3.8.3l.3.1h.1c.1 0 .1 0 .1-.1l1.2-1.2c.3-.2.6-.3.9-.3.2 0 .4 0 .6.1l4.1 2.4c.4.1.5.3.6.6z"/></svg>